# xmcd CD database file
#
# Track frame offsets:
#	150
#	12565
#	26826
#	39501
#	53046
#	65454
#	78015
#	91375
#	103698
#	116022
#	128852
#	142313
#	155200
#	167604
#	179515
#	191570
#	204498
#	217316
#	230692
#	242881
#	255363
#	268883
#	281815
#	295029
#	308494
#
# Disc length: 4309 seconds
#
# Revision: 0
# Processed by: cddbd v1.5PL3 Copyright (c) Steve Scherf et al.
# Submitted via: CDex 1.51
#
DISCID=7d10d319
DTITLE=Tommy McClennan - Big Joe Williams and the Stars of Mississippi Blues, Disc C
DYEAR=2004
DGENRE=Blues
TTITLE0=You Can Mistreat Me Here
TTITLE1=New Shake 'Em On Down
TTITLE2=Bottle It Up And Go
TTITLE3=Whiskey Head Woman
TTITLE4=Brown Skin Girl
TTITLE5=Cotton Patch Blues
TTITLE6=Baby Don't You Want To Go
TTITLE7=Baby Please Don't Tell On Me
TTITLE8=I'm Going Don't You Know
TTITLE9=New Highway 51
TTITLE10=She's Just Good Huggin' Size
TTITLE11=My Little Girl
TTITLE12=My Baby's Gone
TTITLE13=It's Hard To Be Lonesome
TTITLE14=My Baby's Doggin' Me
TTITLE15=She's A Good Looking Mama
TTITLE16=Whiskey Head Man
TTITLE17=New Sugar Mama
TTITLE18=Down To Skin and Bones Blues
TTITLE19=Katy Mae Blues
TTITLE20=Love With A Feeling
TTITLE21=Drop Down Mama
TTITLE22=Black Minnie
TTITLE23=Elsie Blues
TTITLE24=Des'e My Blues 
EXTD=YEAR: 2004
EXTT0=
EXTT1=
EXTT2=
EXTT3=
EXTT4=
EXTT5=
EXTT6=
EXTT7=
EXTT8=
EXTT9=
EXTT10=
EXTT11=
EXTT12=
EXTT13=
EXTT14=
EXTT15=
EXTT16=
EXTT17=
EXTT18=
EXTT19=
EXTT20=
EXTT21=
EXTT22=
EXTT23=
EXTT24=
PLAYORDER=
